{
  "accessors": [
    {
      "bufferView": 2,
      "componentType": 5126,
      "count": 889,
      "max": [
        57.485000610351562,
        21.399997711181641,
        87.100006103515625
      ],
      "min": [
        -57.463687896728516,
        -23.585000991821289,
        85.100006103515625
      ],
      "type": "VEC3"
    },
    {
      "bufferView": 2,
      "byteOffset": 10668,
      "componentType": 5126,
      "count": 889,
      "max": [
        1,
        1,
        1
      ],
      "min": [
        -1,
        -1,
        -1
      ],
      "type": "VEC3"
    },
    {
      "bufferView": 3,
      "componentType": 5126,
      "count": 889,
      "max": [
        1,
        1,
        0.20491547882556915,
        1
      ],
      "min": [
        -1,
        -1,
        -0.3757513165473938,
        1
      ],
      "type": "VEC4"
    },
    {
      "bufferView": 1,
      "componentType": 5126,
      "count": 889,
      "max": [
        1.2989209890365601,
        0.9148939847946167
      ],
      "min": [
        -0.54973602294921875,
        0.021624000743031502
      ],
      "type": "VEC2"
    },
    {
      "bufferView": 0,
      "componentType": 5125,
      "count": 3798,
      "max": [
        888
      ],
      "min": [
        0
      ],
      "type": "SCALAR"
    },
    {
      "bufferView": 2,
      "byteOffset": 21336,
      "componentType": 5126,
      "count": 60167,
      "max": [
        34.328460693359375,
        21.299999237060547,
        85.100006103515625
      ],
      "min": [
        -34.299999237060547,
        -22.80000114440918,
        19.726573944091797
      ],
      "type": "VEC3"
    },
    {
      "bufferView": 2,
      "byteOffset": 743340,
      "componentType": 5126,
      "count": 60167,
      "max": [
        1,
        1,
        1
      ],
      "min": [
        -1,
        -1,
        -1
      ],
      "type": "VEC3"
    },
    {
      "bufferView": 3,
      "byteOffset": 14224,
      "componentType": 5126,
      "count": 60167,
      "max": [
        0.99745315313339233,
        1,
        1,
        1
      ],
      "min": [
        -1,
        -1,
        -1,
        -1
      ],
      "type": "VEC4"
    },
    {
      "bufferView": 1,
      "byteOffset": 7112,
      "componentType": 5126,
      "count": 60167,
      "max": [
        0.99748498201370239,
        0.98971998691558838
      ],
      "min": [
        0.0025220001116394997,
        0.0025210001040250063
      ],
      "type": "VEC2"
    },
    {
      "bufferView": 0,
      "byteOffset": 15192,
      "componentType": 5125,
      "count": 260442,
      "max": [
        60166
      ],
      "min": [
        0
      ],
      "type": "SCALAR"
    },
    {
      "bufferView": 2,
      "byteOffset": 1465344,
      "componentType": 5126,
      "count": 4,
      "max": [
        50.849536895751953,
        19.701974868774414,
        14.053935050964355
      ],
      "min": [
        -50.849536895751953,
        -16.001977920532227,
        14.053935050964355
      ],
      "type": "VEC3"
    },
    {
      "bufferView": 2,
      "byteOffset": 1465392,
      "componentType": 5126,
      "count": 4,
      "max": [
        0,
        -0,
        -1
      ],
      "min": [
        0,
        -0,
        -1
      ],
      "type": "VEC3"
    },
    {
      "bufferView": 3,
      "byteOffset": 976896,
      "componentType": 5126,
      "count": 4,
      "max": [
        0,
        -1,
        0,
        1
      ],
      "min": [
        -2.4956250399554847e-07,
        -1,
        0,
        1
      ],
      "type": "VEC4"
    },
    {
      "bufferView": 1,
      "byteOffset": 488448,
      "componentType": 5126,
      "count": 4,
      "max": [
        0.15191000699996948,
        0.42972800135612488
      ],
      "min": [
        0.0016090000281110406,
        0.0016090000281110406
      ],
      "type": "VEC2"
    },
    {
      "bufferView": 0,
      "byteOffset": 1056960,
      "componentType": 5125,
      "count": 6,
      "max": [
        3
      ],
      "min": [
        0
      ],
      "type": "SCALAR"
    },
    {
      "bufferView": 2,
      "byteOffset": 1465440,
      "componentType": 5126,
      "count": 15381,
      "max": [
        56.166595458984375,
        21.29088020324707,
        85.100006103515625
      ],
      "min": [
        -56.166580200195312,
        -22.28150749206543,
        0
      ],
      "type": "VEC3"
    },
    {
      "bufferView": 2,
      "byteOffset": 1650012,
      "componentType": 5126,
      "count": 15381,
      "max": [
        1,
        1,
        1
      ],
      "min": [
        -1,
        -1,
        -1
      ],
      "type": "VEC3"
    },
    {
      "bufferView": 3,
      "byteOffset": 976960,
      "componentType": 5126,
      "count": 15381,
      "max": [
        1,
        1,
        1,
        1
      ],
      "min": [
        -1,
        -1,
        -1,
        -1
      ],
      "type": "VEC4"
    },
    {
      "bufferView": 1,
      "byteOffset": 488480,
      "componentType": 5126,
      "count": 15381,
      "max": [
        0.99838900566101074,
        0.99750101566314697
      ],
      "min": [
        0.0016070000128820539,
        0.0016049999976530671
      ],
      "type": "VEC2"
    },
    {
      "bufferView": 0,
      "byteOffset": 1056984,
      "componentType": 5125,
      "count": 60678,
      "max": [
        15380
      ],
      "min": [
        0
      ],
      "type": "SCALAR"
    }
  ],
  "asset": {
    "extras": {
      "author": "Interiors3D (https://sketchfab.com/Interiors3D)",
      "license": "CC-BY-4.0 (http://creativecommons.org/licenses/by/4.0/)",
      "source": "https://sketchfab.com/3d-models/y8ce-dbd77919660240eb9fdbf88ec1fc908b",
      "title": "Y8CE"
    },
    "generator": "Sketchfab-8.70.0",
    "version": "2.0"
  },
  "bufferViews": [
    {
      "buffer": 0,
      "byteLength": 1299696,
      "byteOffset": 0,
      "name": "floatBufferViews",
      "target": 34963
    },
    {
      "buffer": 0,
      "byteLength": 611528,
      "byteOffset": 1299696,
      "byteStride": 8,
      "name": "floatBufferViews",
      "target": 34962
    },
    {
      "buffer": 0,
      "byteLength": 1834584,
      "byteOffset": 1911224,
      "byteStride": 12,
      "name": "floatBufferViews",
      "target": 34962
    },
    {
      "buffer": 0,
      "byteLength": 1223056,
      "byteOffset": 3745808,
      "byteStride": 16,
      "name": "floatBufferViews",
      "target": 34962
    }
  ],
  "buffers": [
    {
      "byteLength": 4968864,
      "uri": "scene.bin"
    }
  ],
  "images": [
    {
      "uri": "textures/Manoir_natural_wood_baseColor.jpeg"
    },
    {
      "uri": "textures/Manoir_natural_wood_metallicRoughness.png"
    },
    {
      "uri": "textures/Manoir_natural_wood_normal.png"
    },
    {
      "uri": "textures/Metal_baseColor.jpeg"
    },
    {
      "uri": "textures/Metal_metallicRoughness.png"
    },
    {
      "uri": "textures/Metal_normal.png"
    },
    {
      "uri": "textures/wood_baseColor.jpeg"
    },
    {
      "uri": "textures/wood_metallicRoughness.png"
    },
    {
      "uri": "textures/wood_normal.png"
    }
  ],
  "materials": [
    {
      "doubleSided": true,
      "name": "Manoir_natural_wood",
      "normalTexture": {
        "index": 2,
        "scale": 1,
        "texCoord": 0
      },
      "pbrMetallicRoughness": {
        "baseColorFactor": [
          1,
          1,
          1,
          1
        ],
        "baseColorTexture": {
          "index": 0,
          "texCoord": 0
        },
        "metallicFactor": 0,
        "metallicRoughnessTexture": {
          "index": 1,
          "texCoord": 0
        },
        "roughnessFactor": 1
      }
    },
    {
      "doubleSided": true,
      "name": "Metal",
      "normalTexture": {
        "index": 5,
        "scale": 1,
        "texCoord": 0
      },
      "pbrMetallicRoughness": {
        "baseColorFactor": [
          1,
          1,
          1,
          1
        ],
        "baseColorTexture": {
          "index": 3,
          "texCoord": 0
        },
        "metallicFactor": 1,
        "metallicRoughnessTexture": {
          "index": 4,
          "texCoord": 0
        },
        "roughnessFactor": 0.70560547828662745
      }
    },
    {
      "doubleSided": true,
      "name": "wood",
      "normalTexture": {
        "index": 8,
        "scale": 1,
        "texCoord": 0
      },
      "pbrMetallicRoughness": {
        "baseColorFactor": [
          0.69999999999999996,
          0.69999999999999996,
          0.69999999999999996,
          1
        ],
        "baseColorTexture": {
          "index": 6,
          "texCoord": 0
        },
        "metallicFactor": 0.20000000000000001,
        "metallicRoughnessTexture": {
          "index": 7,
          "texCoord": 0
        },
        "roughnessFactor": 0.90000000000000002
      }
    }
  ],
  "meshes": [
    {
      "primitives": [
        {
          "attributes": {
            "NORMAL": 1,
            "POSITION": 0,
            "TANGENT": 2,
            "TEXCOORD_0": 3
          },
          "indices": 4,
          "material": 0,
          "mode": 4
        }
      ]
    },
    {
      "primitives": [
        {
          "attributes": {
            "NORMAL": 6,
            "POSITION": 5,
            "TANGENT": 7,
            "TEXCOORD_0": 8
          },
          "indices": 9,
          "material": 1,
          "mode": 4
        }
      ]
    },
    {
      "primitives": [
        {
          "attributes": {
            "NORMAL": 11,
            "POSITION": 10,
            "TANGENT": 12,
            "TEXCOORD_0": 13
          },
          "indices": 14,
          "material": 2,
          "mode": 4
        }
      ]
    },
    {
      "primitives": [
        {
          "attributes": {
            "NORMAL": 16,
            "POSITION": 15,
            "TANGENT": 17,
            "TEXCOORD_0": 18
          },
          "indices": 19,
          "material": 2,
          "mode": 4
        }
      ]
    }
  ],
  "nodes": [
    {
      "children": [
        1
      ],
      "name": "RootNode (gltf orientation matrix)",
      "rotation": [
        -0.70710678118654746,
        -0,
        -0,
        0.70710678118654757
      ]
    },
    {
      "children": [
        2
      ],
      "name": "RootNode (model correction matrix)"
    },
    {
      "children": [
        3,
        4,
        5,
        6
      ],
      "name": "W13 - Y8CE00 - Sketchfab - mesh.obj.cleaner.materialmerger.gles"
    },
    {
      "mesh": 0,
      "name": ""
    },
    {
      "mesh": 1,
      "name": ""
    },
    {
      "mesh": 2,
      "name": ""
    },
    {
      "mesh": 3,
      "name": ""
    }
  ],
  "samplers": [
    {
      "magFilter": 9729,
      "minFilter": 9987,
      "wrapS": 10497,
      "wrapT": 10497
    }
  ],
  "scene": 0,
  "scenes": [
    {
      "name": "OSG_Scene",
      "nodes": [
        0
      ]
    }
  ],
  "textures": [
    {
      "sampler": 0,
      "source": 0
    },
    {
      "sampler": 0,
      "source": 1
    },
    {
      "sampler": 0,
      "source": 2
    },
    {
      "sampler": 0,
      "source": 3
    },
    {
      "sampler": 0,
      "source": 4
    },
    {
      "sampler": 0,
      "source": 5
    },
    {
      "sampler": 0,
      "source": 6
    },
    {
      "sampler": 0,
      "source": 7
    },
    {
      "sampler": 0,
      "source": 8
    }
  ]
}

